<svg xmlns="http://www.w3.org/2000/svg"
viewBox="0 0 72 72"
width="72"
height="72"
style="color:#A67C5B">

<rect x="6" y="6" width="60" height="60" rx="18" fill="currentColor"/>

<path fill="#ffffff" d="
M27 25
C27.6 23.8 28.8 23 30.2 23
H41.8
C43.2 23 44.4 23.8 45 25
L48 31
C49.9 31 51.5 32.6 51.5 34.5
V42
C51.5 43.7 50.2 45 48.5 45
H23.5
C21.8 45 20.5 43.7 20.5 42
V34.5
C20.5 32.6 22.1 31 24 31
L27 25
Z"/>

<rect x="28.5" y="27" width="15" height="7" rx="2.2" fill="#A67C5B"/>

<circle cx="28" cy="45" r="3.2" fill="#ffffff"/>
<circle cx="44" cy="45" r="3.2" fill="#ffffff"/>

<circle cx="28" cy="36" r="1.6" fill="#A67C5B"/>
<circle cx="44" cy="36" r="1.6" fill="#A67C5B"/>

</svg>
