<svg xmlns="http://www.w3.org/2000/svg" viewBox="0 0 1024 1024" role="img" aria-label="京滋労働組合共済会 ロゴ">
  <path fill="#ef1b22" fill-rule="evenodd" d="M 496 723 L 492 725 L 470 747 L 467 753 L 467 759 L 470 765 L 487 782 L 494 786 L 503 786 L 509 782 L 526 765 L 529 759 L 529 753 L 526 747 L 504 725 L 499 723 Z M 496 742 L 500 742 L 502 743 L 513 755 L 511 759 L 502 768 L 500 769 L 496 769 L 493 767 L 484 758 L 484 754 L 486 751 Z M 537 684 L 533 686 L 508 711 L 507 715 L 534 742 L 539 744 L 545 744 L 551 741 L 571 721 L 573 716 L 573 711 L 570 705 L 552 687 L 547 684 Z M 539 700 L 544 700 L 556 712 L 556 714 L 554 718 L 548 724 L 542 728 L 539 727 L 528 716 L 527 714 L 528 711 Z M 450 684 L 445 686 L 426 705 L 424 709 L 424 718 L 426 722 L 446 742 L 450 744 L 459 744 L 466 739 L 486 719 L 489 713 L 488 711 L 464 687 L 459 684 Z M 453 700 L 457 700 L 469 712 L 469 715 L 467 718 L 456 728 L 452 727 L 442 717 L 441 715 L 441 712 L 443 709 Z M 495 642 L 488 645 L 470 663 L 467 670 L 467 674 L 470 680 L 492 702 L 495 704 L 500 704 L 506 700 L 527 679 L 529 675 L 529 669 L 527 664 L 508 645 L 501 642 Z M 498 658 L 499 659 L 501 659 L 511 669 L 512 671 L 512 674 L 501 685 L 499 686 L 497 686 L 485 674 L 484 672 L 485 669 L 494 660 Z M 340 525 L 339 526 L 335 526 L 334 527 L 329 528 L 316 536 L 186 666 L 186 667 L 179 674 L 174 683 L 174 685 L 172 689 L 172 693 L 171 694 L 171 704 L 172 705 L 172 710 L 173 711 L 175 719 L 183 730 L 205 755 L 205 756 L 216 768 L 216 769 L 227 781 L 227 782 L 234 789 L 234 790 L 251 809 L 251 810 L 257 816 L 257 817 L 263 823 L 263 824 L 280 843 L 280 844 L 286 850 L 286 851 L 292 857 L 292 858 L 298 864 L 298 865 L 304 871 L 309 878 L 316 885 L 316 886 L 322 892 L 328 900 L 360 936 L 365 943 L 377 955 L 386 960 L 388 960 L 391 962 L 395 962 L 396 963 L 413 963 L 414 962 L 420 961 L 434 953 L 443 944 L 447 938 L 451 930 L 451 928 L 453 924 L 453 919 L 454 918 L 454 907 L 453 906 L 453 902 L 452 901 L 452 898 L 450 895 L 450 893 L 444 883 L 432 869 L 432 868 L 426 862 L 426 861 L 414 848 L 414 847 L 398 829 L 393 822 L 346 768 L 346 767 L 335 755 L 331 749 L 318 735 L 314 729 L 289 701 L 289 700 L 389 600 L 395 589 L 395 586 L 397 581 L 397 565 L 396 564 L 395 558 L 391 550 L 386 543 L 376 534 L 365 528 L 359 527 L 358 526 L 354 526 L 353 525 Z M 99 523 L 98 524 L 92 524 L 91 525 L 88 525 L 87 526 L 82 527 L 68 536 L 62 543 L 57 552 L 56 558 L 55 559 L 55 564 L 54 565 L 54 920 L 55 921 L 55 926 L 56 927 L 56 930 L 57 931 L 58 936 L 62 944 L 70 953 L 77 958 L 92 964 L 109 965 L 110 964 L 115 964 L 116 963 L 119 963 L 120 962 L 125 961 L 135 955 L 147 942 L 149 938 L 149 936 L 151 933 L 152 923 L 153 922 L 153 563 L 152 562 L 152 557 L 147 545 L 136 533 L 130 530 L 128 528 L 126 528 L 120 525 L 111 524 L 110 523 Z M 627 89 L 603 110 L 603 111 L 589 126 L 577 143 L 576 146 L 571 153 L 560 177 L 560 179 L 557 186 L 557 189 L 555 193 L 553 205 L 552 206 L 551 218 L 550 219 L 550 229 L 549 230 L 549 453 L 550 454 L 550 459 L 551 460 L 552 466 L 560 479 L 569 487 L 578 492 L 580 492 L 584 494 L 587 494 L 588 495 L 604 495 L 605 494 L 612 493 L 624 487 L 634 477 L 641 463 L 642 454 L 643 453 L 643 243 L 644 242 L 644 234 L 645 233 L 646 224 L 647 223 L 647 220 L 648 219 L 650 211 L 658 194 L 662 189 L 663 186 L 669 178 L 686 161 L 700 151 L 718 142 L 720 142 L 724 140 L 727 140 L 731 138 L 734 138 L 735 137 L 747 136 L 748 135 L 778 135 L 779 136 L 786 136 L 787 137 L 795 138 L 815 146 L 817 148 L 822 150 L 831 156 L 836 161 L 837 161 L 851 176 L 857 185 L 863 197 L 863 199 L 866 205 L 866 208 L 868 212 L 869 222 L 870 223 L 870 234 L 871 235 L 871 266 L 870 267 L 702 267 L 701 268 L 694 269 L 682 275 L 673 284 L 668 293 L 668 295 L 666 299 L 666 302 L 665 303 L 665 319 L 666 320 L 667 327 L 672 337 L 681 347 L 689 352 L 691 352 L 694 354 L 700 355 L 701 356 L 707 356 L 708 357 L 870 357 L 871 358 L 871 455 L 872 456 L 872 460 L 873 461 L 874 466 L 880 477 L 893 489 L 899 492 L 901 492 L 905 494 L 908 494 L 909 495 L 913 495 L 914 496 L 925 496 L 926 495 L 936 494 L 942 491 L 944 491 L 952 486 L 960 478 L 961 475 L 964 471 L 964 469 L 966 465 L 966 462 L 967 461 L 967 223 L 966 222 L 966 214 L 965 213 L 965 207 L 964 206 L 962 192 L 960 188 L 960 185 L 959 184 L 955 170 L 944 147 L 928 123 L 906 100 L 905 100 L 900 95 L 888 86 L 879 81 L 877 79 L 874 78 L 872 76 L 852 66 L 850 66 L 847 64 L 845 64 L 842 62 L 840 62 L 830 58 L 827 58 L 823 56 L 820 56 L 819 55 L 816 55 L 811 53 L 801 52 L 800 51 L 793 51 L 792 50 L 783 50 L 782 49 L 734 49 L 733 50 L 724 50 L 723 51 L 718 51 L 717 52 L 712 52 L 711 53 L 702 54 L 701 55 L 698 55 L 694 57 L 691 57 L 690 58 L 679 61 L 676 63 L 669 65 L 660 70 L 658 70 L 654 73 L 642 79 Z M 91 91 L 91 92 L 80 104 L 74 113 L 64 132 L 62 140 L 60 143 L 58 154 L 57 155 L 56 165 L 55 166 L 55 175 L 54 176 L 54 448 L 55 449 L 55 457 L 56 458 L 56 461 L 59 467 L 59 469 L 65 478 L 71 484 L 75 487 L 91 494 L 95 494 L 96 495 L 112 495 L 113 494 L 117 494 L 118 493 L 124 492 L 136 485 L 144 477 L 150 466 L 151 460 L 152 459 L 152 451 L 153 450 L 153 172 L 154 171 L 155 164 L 161 153 L 174 141 L 178 139 L 180 139 L 183 137 L 187 137 L 188 136 L 202 136 L 203 137 L 210 138 L 216 141 L 223 146 L 228 151 L 233 158 L 237 168 L 237 173 L 238 174 L 238 454 L 239 455 L 239 459 L 240 460 L 240 463 L 242 466 L 242 468 L 249 479 L 260 488 L 271 493 L 279 494 L 280 495 L 296 495 L 297 494 L 307 492 L 318 486 L 327 477 L 333 467 L 333 465 L 335 461 L 335 457 L 336 456 L 336 172 L 337 171 L 337 167 L 341 157 L 349 147 L 357 141 L 363 138 L 369 137 L 370 136 L 374 136 L 375 135 L 384 135 L 385 136 L 389 136 L 390 137 L 395 138 L 405 144 L 416 156 L 419 162 L 420 168 L 421 169 L 421 178 L 422 179 L 422 182 L 421 183 L 422 184 L 422 457 L 423 458 L 424 465 L 426 468 L 426 470 L 430 476 L 440 486 L 449 491 L 451 491 L 458 494 L 462 494 L 463 495 L 477 495 L 478 494 L 482 494 L 483 493 L 488 492 L 491 490 L 495 489 L 501 485 L 509 477 L 515 466 L 516 460 L 517 459 L 517 454 L 518 453 L 518 184 L 517 183 L 517 165 L 516 164 L 516 158 L 515 157 L 515 152 L 513 147 L 513 143 L 512 142 L 509 131 L 507 128 L 507 126 L 501 114 L 491 99 L 472 79 L 453 66 L 436 58 L 434 58 L 428 55 L 425 55 L 421 53 L 417 53 L 416 52 L 412 52 L 411 51 L 405 51 L 404 50 L 397 50 L 396 49 L 363 49 L 362 50 L 354 50 L 353 51 L 339 53 L 335 55 L 332 55 L 331 56 L 326 57 L 318 61 L 316 61 L 299 70 L 289 78 L 287 78 L 271 67 L 259 61 L 246 57 L 243 55 L 240 55 L 239 54 L 236 54 L 231 52 L 227 52 L 226 51 L 212 50 L 211 49 L 180 49 L 179 50 L 172 50 L 171 51 L 161 52 L 160 53 L 153 54 L 152 55 L 141 58 L 138 60 L 136 60 L 120 68 L 108 76 Z M 16 12 L 7 23 L 2 33 L 1 39 L 0 40 L 0 981 L 1 982 L 3 992 L 7 1000 L 14 1008 L 14 1009 L 15 1009 L 23 1016 L 31 1020 L 33 1020 L 37 1022 L 40 1022 L 41 1023 L 981 1023 L 982 1022 L 985 1022 L 991 1019 L 993 1019 L 1003 1013 L 1015 1000 L 1020 990 L 1020 988 L 1022 984 L 1022 980 L 1023 979 L 1023 41 L 1022 40 L 1022 37 L 1021 36 L 1021 33 L 1019 30 L 1019 28 L 1017 26 L 1014 20 L 1000 7 L 990 2 L 984 1 L 983 0 L 40 0 L 39 1 L 31 3 L 23 7 Z M 35 25 L 39 23 L 46 22 L 47 21 L 975 21 L 976 22 L 981 22 L 989 26 L 997 34 L 999 38 L 1000 48 L 1001 49 L 1001 530 L 1000 531 L 864 531 L 863 532 L 844 533 L 843 534 L 832 535 L 831 536 L 827 536 L 826 537 L 811 540 L 810 541 L 793 546 L 790 548 L 783 550 L 763 560 L 761 562 L 758 563 L 753 567 L 744 572 L 731 583 L 730 583 L 707 607 L 690 630 L 683 644 L 680 648 L 680 650 L 676 657 L 676 659 L 672 667 L 671 673 L 670 674 L 670 676 L 668 680 L 668 683 L 667 684 L 667 687 L 666 688 L 666 692 L 665 693 L 665 698 L 664 699 L 664 704 L 663 705 L 663 715 L 662 716 L 661 745 L 660 746 L 659 759 L 658 760 L 658 764 L 657 765 L 656 773 L 655 774 L 654 780 L 653 781 L 652 786 L 650 789 L 649 794 L 641 810 L 630 826 L 611 846 L 600 854 L 585 862 L 583 862 L 580 864 L 578 864 L 568 868 L 565 868 L 560 870 L 556 870 L 555 871 L 540 872 L 539 873 L 529 873 L 528 874 L 517 875 L 504 881 L 495 889 L 490 896 L 486 906 L 486 909 L 485 910 L 485 924 L 486 925 L 486 929 L 487 930 L 488 935 L 493 944 L 507 957 L 510 958 L 512 960 L 514 960 L 517 962 L 523 963 L 524 964 L 531 964 L 532 965 L 551 965 L 552 964 L 565 964 L 566 963 L 573 963 L 574 962 L 580 962 L 581 961 L 591 960 L 592 959 L 607 956 L 608 955 L 622 951 L 650 938 L 652 936 L 655 935 L 657 933 L 666 928 L 686 913 L 710 889 L 710 888 L 720 877 L 734 856 L 744 836 L 744 834 L 748 826 L 748 824 L 752 814 L 752 811 L 754 807 L 755 800 L 756 799 L 756 795 L 757 794 L 757 790 L 758 789 L 758 785 L 759 784 L 759 778 L 760 777 L 760 768 L 761 767 L 763 716 L 764 715 L 764 710 L 765 709 L 767 698 L 776 678 L 778 676 L 783 667 L 802 647 L 817 637 L 831 630 L 833 630 L 837 628 L 840 628 L 844 626 L 848 626 L 849 625 L 853 625 L 854 624 L 861 624 L 862 623 L 1000 623 L 1001 624 L 1001 975 L 1000 976 L 1000 981 L 997 988 L 990 996 L 983 1000 L 976 1001 L 975 1002 L 50 1002 L 49 1001 L 44 1001 L 43 1000 L 38 999 L 33 996 L 28 991 L 25 986 L 25 984 L 23 980 L 23 42 L 27 33 Z"/>
</svg>
